<?xml version="1.0" encoding="UTF-8" standalone="no"?>
<!-- Created with Inkscape (http://www.inkscape.org/) -->

<svg
   width="1024"
   height="1024"
   viewBox="0 0 270.93333 270.93333"
   version="1.1"
   id="svg1"
   inkscape:version="1.4.2 (2aeb623e1d, 2025-05-12)"
   sodipodi:docname="icon-white.svg"
   xmlns:inkscape="http://www.inkscape.org/namespaces/inkscape"
   xmlns:sodipodi="http://sodipodi.sourceforge.net/DTD/sodipodi-0.dtd"
   xmlns="http://www.w3.org/2000/svg"
   xmlns:svg="http://www.w3.org/2000/svg"
   xmlns:rdf="http://www.w3.org/1999/02/22-rdf-syntax-ns#"
   xmlns:cc="http://creativecommons.org/ns#"
   xmlns:dc="http://purl.org/dc/elements/1.1/">
  <title
     id="title1">Skell's Maretu Icon</title>
  <sodipodi:namedview
     id="namedview1"
     pagecolor="#505050"
     bordercolor="#eeeeee"
     borderopacity="1"
     inkscape:showpageshadow="0"
     inkscape:pageopacity="0"
     inkscape:pagecheckerboard="true"
     inkscape:deskcolor="#424242"
     inkscape:document-units="mm"
     inkscape:zoom="0.35355339"
     inkscape:cx="459.61941"
     inkscape:cy="490.73211"
     inkscape:window-width="1366"
     inkscape:window-height="707"
     inkscape:window-x="0"
     inkscape:window-y="0"
     inkscape:window-maximized="1"
     inkscape:current-layer="layer3" />
  <defs
     id="defs1" />
  <g
     inkscape:label="Fondo"
     inkscape:groupmode="layer"
     id="layer1"
     style="display:none">
    <rect
       style="fill:#ffffff;fill-opacity:1;stroke-width:0.264583"
       id="rect1"
       width="270.93332"
       height="270.93332"
       x="0"
       y="0"
       inkscape:label="Blanco" />
    <rect
       style="display:none;fill:#000000;stroke-width:0.264583"
       id="rect9"
       width="270.93332"
       height="270.93332"
       x="0"
       y="0"
       inkscape:label="Negro"
       sodipodi:insensitive="true" />
  </g>
  <g
     inkscape:groupmode="layer"
     id="layer3"
     inkscape:label="Serpiente Vectorial"
     transform="translate(1.3543149,0.55306775)">
    <g
       id="g1"
       transform="translate(-2.2289712,0.37440636)">
      <path
         id="rect2"
         style="opacity:1;fill:#f9f9f9;fill-opacity:1;stroke-width:0.39641"
         d="m 146.74605,12.347494 a 24.038967,24.038967 0 0 0 -0.0912,0.0059 h -0.16759 v 0.01123 a 24.038967,24.038967 0 0 0 -23.78016,24.021812 24.038967,24.038967 0 0 0 0.0554,1.630235 v 77.004049 h 10e-4 v 0.009 h -7.3e-4 c 0,16.09597 13.04848,29.14445 29.14444,29.14445 1.91696,0 4.21524,-0.0928 6.77679,-0.25587 v 28.07083 h -54.37602 v -9.8233 h -0.0239 a 25.409518,25.409518 0 0 0 0.0209,-1.0362 25.409518,25.409518 0 0 0 -25.40964,-25.40889 25.409518,25.409518 0 0 0 -0.750403,0.0113 v -0.0117 H 38.769846 a 25.409518,25.409518 0 0 0 -0.366598,-0.003 25.409518,25.409518 0 0 0 -0.04564,0.003 h -0.175817 v 0.0112 a 25.409518,25.409518 0 0 0 -25.18744,25.39467 25.409518,25.409518 0 0 0 0.0015,0.27308 h -0.003 v 48.98181 a 45.941709,45.941709 0 0 0 -0.0015,0.39503 45.941709,45.941709 0 0 0 0.0015,0.0195 45.941709,45.941709 0 0 0 45.939807,45.92186 45.941709,45.941709 0 0 0 0.573838,-0.003 l 7.46e-4,0.003 H 211.26708 a 46.20882,46.20882 0 0 0 1.12298,0.0134 46.20882,46.20882 0 0 0 0.20574,-0.0134 h 0.3868 v -0.0254 A 46.20882,46.20882 0 0 0 258.45331,212.751 h 0.0606 v -0.92622 a 46.20882,46.20882 0 0 0 0.0853,-1.3018 46.20882,46.20882 0 0 0 -0.0853,-2.80707 v -71.15194 c 5e-5,-0.27452 -4e-5,-0.60072 0,-0.87907 3.8e-4,-2.71915 7.7e-4,-5.56922 7.5e-4,-8.58736 h 7.6e-4 c 0,-16.08496 -13.03072,-29.12661 -29.11153,-29.14443 V 76.676241 a 24.038967,24.038967 0 0 0 6.23738,0.822974 24.038967,24.038967 0 0 0 24.03903,-24.039019 24.038967,24.038967 0 0 0 0,-0.04639 h 0.003 V 37.02095 a 24.038967,24.038967 0 0 0 0.008,-0.626206 24.038967,24.038967 0 0 0 -24.03902,-24.03902 24.038967,24.038967 0 0 0 -0.0823,7.49e-4 v -0.003 h -88.30117 a 24.038967,24.038967 0 0 0 -0.52297,-0.0059 z M 236.8458,25.01977 a 9.6743605,9.6743605 0 0 1 9.67441,9.674413 9.6743605,9.6743605 0 0 1 -9.67441,9.674414 9.6743605,9.6743605 0 0 1 -9.67441,-9.674414 9.6743605,9.6743605 0 0 1 9.67441,-9.674413 z" />
      <g
         id="g5"
         transform="matrix(1.4477713,0,0,1.4477713,-57.822587,-62.31685)"
         style="fill:#f9f9f9;fill-opacity:1">
        <circle
           style="opacity:1;fill:#f9f9f9;fill-opacity:1;stroke-width:0.210997"
           id="path4"
           cx="58.699066"
           cy="124.27364"
           r="8.8399391" />
        <circle
           style="fill:#f9f9f9;fill-opacity:1;stroke-width:0.210997"
           id="path4-18"
           cx="65.593063"
           cy="115.86389"
           r="8.8399391" />
        <circle
           style="fill:#f9f9f9;fill-opacity:1;stroke-width:0.210997"
           id="path4-1"
           cx="100.93755"
           cy="124.27542"
           r="8.8399391" />
        <rect
           style="opacity:1;fill:#f9f9f9;fill-opacity:1;stroke-width:0.264583"
           id="rect4"
           width="43.030392"
           height="11.693041"
           x="58.531357"
           y="121.40968" />
        <path
           sodipodi:type="star"
           style="opacity:1;fill:#f9f9f9;fill-opacity:1;stroke-width:0.264583"
           id="path5"
           inkscape:flatsided="false"
           sodipodi:sides="3"
           sodipodi:cx="63.566147"
           sodipodi:cy="114.36615"
           sodipodi:r1="9.0416784"
           sodipodi:r2="4.5208387"
           sodipodi:arg1="0.84233139"
           sodipodi:arg2="1.8895289"
           inkscape:rounded="0"
           inkscape:randomized="0"
           d="m 69.585418,121.11303 -7.435936,-2.45374 -7.435936,-2.45374 5.842966,-5.21284 5.842965,-5.21284 1.59297,7.66658 z"
           inkscape:transform-center-x="0.56952198"
           inkscape:transform-center-y="-1.2134846"
           transform="matrix(0.75648676,-0.11696938,0.11696938,0.75648676,-3.3973937,37.529611)" />
        <circle
           style="fill:#f9f9f9;fill-opacity:1;stroke-width:0.210997"
           id="path4-18-2"
           cx="-94.014"
           cy="115.87548"
           r="8.8399391"
           transform="scale(-1,1)" />
        <path
           sodipodi:type="star"
           style="fill:#f9f9f9;fill-opacity:1;stroke-width:0.264583"
           id="path5-3"
           inkscape:flatsided="false"
           sodipodi:sides="3"
           sodipodi:cx="63.566147"
           sodipodi:cy="114.36615"
           sodipodi:r1="9.0416784"
           sodipodi:r2="4.5208387"
           sodipodi:arg1="0.84233139"
           sodipodi:arg2="1.8895289"
           inkscape:rounded="0"
           inkscape:randomized="0"
           d="m 69.585418,121.11303 -7.435936,-2.45374 -7.435936,-2.45374 5.842966,-5.21284 5.842965,-5.21284 1.59297,7.66658 z"
           inkscape:transform-center-x="-0.56952498"
           inkscape:transform-center-y="-1.2134846"
           transform="matrix(-0.75648676,-0.11696938,-0.11696938,0.75648676,163.00445,37.541199)" />
        <rect
           style="opacity:1;fill:#f9f9f9;fill-opacity:1;stroke-width:0.359916"
           id="rect5"
           width="28.435698"
           height="16.401316"
           x="65.340714"
           y="107.0381" />
      </g>
      <g
         id="g8"
         transform="matrix(0.91190338,0,0,0.91190338,-15.05051,-33.695353)"
         style="fill:#f9f9f9;fill-opacity:1">
        <circle
           style="opacity:1;fill:#f9f9f9;fill-opacity:1;stroke-width:0.210997"
           id="circle5"
           cx="58.699066"
           cy="124.27364"
           r="8.8399391" />
        <circle
           style="fill:#f9f9f9;fill-opacity:1;stroke-width:0.210997"
           id="circle6"
           cx="65.593063"
           cy="115.86389"
           r="8.8399391" />
        <circle
           style="fill:#f9f9f9;fill-opacity:1;stroke-width:0.210997"
           id="circle7"
           cx="100.93755"
           cy="124.27542"
           r="8.8399391" />
        <rect
           style="opacity:1;fill:#f9f9f9;fill-opacity:1;stroke-width:0.264583"
           id="rect7"
           width="43.030392"
           height="11.693041"
           x="58.531357"
           y="121.40968" />
        <path
           sodipodi:type="star"
           style="opacity:1;fill:#f9f9f9;fill-opacity:1;stroke-width:0.264583"
           id="path7"
           inkscape:flatsided="false"
           sodipodi:sides="3"
           sodipodi:cx="63.566147"
           sodipodi:cy="114.36615"
           sodipodi:r1="9.0416784"
           sodipodi:r2="4.5208387"
           sodipodi:arg1="0.84233139"
           sodipodi:arg2="1.8895289"
           inkscape:rounded="0"
           inkscape:randomized="0"
           d="m 69.585418,121.11303 -7.435936,-2.45374 -7.435936,-2.45374 5.842966,-5.21284 5.842965,-5.21284 1.59297,7.66658 z"
           inkscape:transform-center-x="0.56952198"
           inkscape:transform-center-y="-1.2134846"
           transform="matrix(0.75648676,-0.11696938,0.11696938,0.75648676,-3.3973937,37.529611)" />
        <circle
           style="fill:#f9f9f9;fill-opacity:1;stroke-width:0.210997"
           id="circle8"
           cx="-94.014"
           cy="115.87548"
           r="8.8399391"
           transform="scale(-1,1)" />
        <path
           sodipodi:type="star"
           style="fill:#f9f9f9;fill-opacity:1;stroke-width:0.264583"
           id="path8"
           inkscape:flatsided="false"
           sodipodi:sides="3"
           sodipodi:cx="63.566147"
           sodipodi:cy="114.36615"
           sodipodi:r1="9.0416784"
           sodipodi:r2="4.5208387"
           sodipodi:arg1="0.84233139"
           sodipodi:arg2="1.8895289"
           inkscape:rounded="0"
           inkscape:randomized="0"
           d="m 69.585418,121.11303 -7.435936,-2.45374 -7.435936,-2.45374 5.842966,-5.21284 5.842965,-5.21284 1.59297,7.66658 z"
           inkscape:transform-center-x="-0.56952498"
           inkscape:transform-center-y="-1.2134846"
           transform="matrix(-0.75648676,-0.11696938,-0.11696938,0.75648676,163.00445,37.541199)" />
        <rect
           style="opacity:1;fill:#f9f9f9;fill-opacity:1;stroke-width:0.359916"
           id="rect8"
           width="28.435698"
           height="16.401316"
           x="65.340714"
           y="107.0381" />
      </g>
      <g
         id="g9"
         transform="matrix(1.4477713,0,0,1.4477713,-57.822587,-65.381299)"
         style="fill:#f9f9f9;fill-opacity:1">
        <circle
           style="fill:#f9f9f9;fill-opacity:1;stroke-width:0.0830538"
           id="circle5-1"
           cx="71.505241"
           cy="82.803795"
           r="3.4796247" />
        <circle
           style="fill:#f9f9f9;fill-opacity:1;stroke-width:0.0830538"
           id="circle7-4"
           cx="88.131378"
           cy="82.804489"
           r="3.4796247" />
        <rect
           style="fill:#f9f9f9;fill-opacity:1;stroke-width:0.125065"
           id="rect7-4"
           width="16.937857"
           height="6.6372676"
           x="71.439224"
           y="79.641876" />
        <path
           sodipodi:type="star"
           style="opacity:1;fill:#f9f9f9;fill-opacity:1;stroke-width:0.264583"
           id="path9"
           inkscape:flatsided="false"
           sodipodi:sides="3"
           sodipodi:cx="75.864456"
           sodipodi:cy="73.245216"
           sodipodi:r1="13.024936"
           sodipodi:r2="6.5124669"
           sodipodi:arg1="0.52359878"
           sodipodi:arg2="1.5707963"
           inkscape:rounded="0"
           inkscape:randomized="0"
           d="m 87.144381,79.757684 -11.279925,-10e-7 -11.279925,10e-7 5.639963,-9.768701 5.639962,-9.768702 5.639962,9.768702 z"
           inkscape:transform-center-y="-3.3005587"
           transform="matrix(1.0136129,0,0,1.0136129,2.9444438,0.44605741)"
           inkscape:transform-center-x="-2.1190574e-06" />
      </g>
    </g>
  </g>
  <metadata
     id="metadata1">
    <rdf:RDF>
      <cc:Work
         rdf:about="">
        <dc:title>Skell's Maretu Icon</dc:title>
        <dc:creator>
          <cc:Agent>
            <dc:title>Robert Rodríguez</dc:title>
          </cc:Agent>
        </dc:creator>
        <dc:language>Español</dc:language>
        <dc:description>Ícono de Skell's Maretu</dc:description>
      </cc:Work>
    </rdf:RDF>
  </metadata>
</svg>
